<mxfile host="app.diagrams.net" modified="2022-07-05T18:39:46.414Z" agent="5.0 (Windows NT 10.0; Win64; x64) AppleWebKit/537.36 (KHTML, like Gecko) Chrome/103.0.0.0 Safari/537.36" etag="S6BvtBmj5ci_zPbE7qBv" version="20.0.4" type="github">
  <diagram name="Page-1" id="5f0bae14-7c28-e335-631c-24af17079c00">
    <mxGraphModel dx="868" dy="450" grid="1" gridSize="10" guides="1" tooltips="1" connect="1" arrows="1" fold="1" page="1" pageScale="1" pageWidth="1100" pageHeight="850" background="none" math="0" shadow="0">
      <root>
        <mxCell id="0" />
        <mxCell id="1" parent="0" />
        <mxCell id="9oh3B8BOooj2BMt6rwB--2" value="PWA" style="shape=umlFrame;whiteSpace=wrap;html=1;" vertex="1" parent="1">
          <mxGeometry x="10" y="10" width="640" height="440" as="geometry" />
        </mxCell>
        <mxCell id="9oh3B8BOooj2BMt6rwB--8" value="" style="verticalAlign=top;align=left;spacingTop=8;spacingLeft=2;spacingRight=12;shape=cube;size=10;direction=south;fontStyle=4;html=1;" vertex="1" parent="1">
          <mxGeometry x="20" y="60" width="160" height="380" as="geometry" />
        </mxCell>
        <mxCell id="9oh3B8BOooj2BMt6rwB--3" value="Login" style="shape=module;align=left;spacingLeft=20;align=center;verticalAlign=top;" vertex="1" parent="1">
          <mxGeometry x="35" y="98" width="100" height="50" as="geometry" />
        </mxCell>
        <mxCell id="9oh3B8BOooj2BMt6rwB--4" value="Painel Admin" style="shape=module;align=left;spacingLeft=20;align=center;verticalAlign=top;" vertex="1" parent="1">
          <mxGeometry x="35" y="163" width="100" height="50" as="geometry" />
        </mxCell>
        <mxCell id="9oh3B8BOooj2BMt6rwB--5" value="Novo Cliente" style="shape=module;align=left;spacingLeft=20;align=center;verticalAlign=top;" vertex="1" parent="1">
          <mxGeometry x="35" y="228" width="100" height="50" as="geometry" />
        </mxCell>
        <mxCell id="9oh3B8BOooj2BMt6rwB--6" value="Adicionar&#xa;Cliente" style="shape=module;align=left;spacingLeft=20;align=center;verticalAlign=top;" vertex="1" parent="1">
          <mxGeometry x="35" y="298" width="100" height="50" as="geometry" />
        </mxCell>
        <mxCell id="9oh3B8BOooj2BMt6rwB--7" value="Adicionar&#xa;Especialidade" style="shape=module;align=left;spacingLeft=20;align=center;verticalAlign=top;" vertex="1" parent="1">
          <mxGeometry x="35" y="368" width="100" height="50" as="geometry" />
        </mxCell>
        <mxCell id="9oh3B8BOooj2BMt6rwB--12" value="Use" style="endArrow=open;endSize=12;dashed=1;html=1;rounded=0;" edge="1" parent="1">
          <mxGeometry width="160" relative="1" as="geometry">
            <mxPoint x="180" y="240" as="sourcePoint" />
            <mxPoint x="340" y="240" as="targetPoint" />
          </mxGeometry>
        </mxCell>
        <mxCell id="9oh3B8BOooj2BMt6rwB--14" value="Armazena os dados" style="edgeLabel;html=1;align=center;verticalAlign=middle;resizable=0;points=[];" vertex="1" connectable="0" parent="9oh3B8BOooj2BMt6rwB--12">
          <mxGeometry x="0.3375" y="3" relative="1" as="geometry">
            <mxPoint x="-37" y="1" as="offset" />
          </mxGeometry>
        </mxCell>
        <mxCell id="9oh3B8BOooj2BMt6rwB--13" value="DataBase&#xa;MySQL" style="shape=module;align=left;spacingLeft=20;align=center;verticalAlign=top;" vertex="1" parent="1">
          <mxGeometry x="354" y="213" width="100" height="50" as="geometry" />
        </mxCell>
      </root>
    </mxGraphModel>
  </diagram>
</mxfile>
